# xmcd
#
# Track frame offsets: 
#        150
#        20585
#        36646
#        53800
#        71547
#        85748
#        114779
#        129656
#        147033
#
# Disc length: 2270 seconds
#
# Revision: 0
# Processed by: cddbd v1.5.2PL0 Copyright (c) Steve Scherf et al.
# Submitted via: ExactAudioCopy v1.3
#
DISCID=7708dc09
DTITLE=Rit Johnson - Rit
DYEAR=2016
DGENRE=Blues Rock
TTITLE0=Better Late Than Never
TTITLE1=An Important Man
TTITLE2=Bring My Baby Home
TTITLE3=I've Got Something For Ya
TTITLE4=It's Just Something I Do
TTITLE5=I Love My Baby
TTITLE6=Love In The Third Degree
TTITLE7=It's Winter Time
TTITLE8=The Drone
EXTD=
EXTT0=
EXTT1=
EXTT2=
EXTT3=
EXTT4=
EXTT5=
EXTT6=
EXTT7=
EXTT8=
PLAYORDER=
